# xmcd
#
# Track frame offsets:
#	150
#	29992
#	57542
#	92212
#	125267
#	159275
#	183909
#	210318
#	238940
#	271492
#
# Disc length: 3839 seconds
#
# Revision: 0
# Processed by: cddbd v1.5.2PL0 Copyright (c) Steve Scherf et al.
# Submitted via: EasyCDDAExtractor 16.1.0.1
#
DISCID=8e0efd0a
DTITLE=Pet Shop Boys - Elusive More Extended Versions
DYEAR=1900
DGENRE=
TTITLE0=The Patience Of A Saint (Sinful Extended Mix)
TTITLE1=Hit and Miss (Bullseye Extended Mix)
TTITLE2=Screaming (Extended Mix)
TTITLE3=The Boy Who Couldn´´t Keep His Clothes On (Naked Extended Version)
TTITLE4=Jack the Lad (Classic Extended Version)
TTITLE5=It Doesn´´t Often Snow At Christmas (Whiteout Extended Version)
TTITLE6=It Must be Obvious (Extended Version)
TTITLE7=We All Feel Better In The Dark (A Tribute To New York Mix)
TTITLE8=To Step Aside (The Sexier Than Madonna Mix)
TTITLE9=Je t'aime... Moi Non Plus (7'' Mix)
EXTD=
EXTT0=
EXTT1=
EXTT2=
EXTT3=
EXTT4=
EXTT5=
EXTT6=
EXTT7=
EXTT8=
EXTT9=
PLAYORDER=
